<mxfile host="65bd71144e">
    <diagram id="e6VmQYUMG9_Sn6Qvpg7x" name="Page-1">
        <mxGraphModel dx="1134" dy="797" grid="1" gridSize="10" guides="1" tooltips="1" connect="1" arrows="1" fold="1" page="1" pageScale="1" pageWidth="1600" pageHeight="1200" math="0" shadow="0">
            <root>
                <mxCell id="0"/>
                <mxCell id="1" parent="0"/>
                <mxCell id="2" value="Quản lý tài khoản" style="rounded=0;whiteSpace=wrap;html=1;fontSize=16;fontStyle=1;movable=1;resizable=1;rotatable=1;deletable=1;editable=1;connectable=1;fillColor=#ffe6cc;strokeColor=#d79b00;" parent="1" vertex="1">
                    <mxGeometry x="600" y="440" width="160" height="40" as="geometry"/>
                </mxCell>
                <mxCell id="3" value="1. Đăng ký" style="rounded=0;whiteSpace=wrap;html=1;fontSize=16;fontStyle=1;movable=0;resizable=0;rotatable=0;deletable=0;editable=0;connectable=0;fillColor=#dae8fc;strokeColor=#6c8ebf;" parent="1" vertex="1">
                    <mxGeometry x="240" y="520" width="140" height="40" as="geometry"/>
                </mxCell>
                <mxCell id="4" value="2. Đăng nhập" style="rounded=0;whiteSpace=wrap;html=1;fontSize=16;fontStyle=1;movable=0;resizable=0;rotatable=0;deletable=0;editable=0;connectable=0;fillColor=#dae8fc;strokeColor=#6c8ebf;" parent="1" vertex="1">
                    <mxGeometry x="480" y="520" width="140" height="40" as="geometry"/>
                </mxCell>
                <mxCell id="5" value="3. Thay đổi thông tin" style="rounded=0;whiteSpace=wrap;html=1;fontSize=16;fontStyle=1;movable=0;resizable=0;rotatable=0;deletable=0;editable=0;connectable=0;fillColor=#dae8fc;strokeColor=#6c8ebf;" parent="1" vertex="1">
                    <mxGeometry x="720" y="520" width="140" height="40" as="geometry"/>
                </mxCell>
                <mxCell id="7" value="4. Xóa tài khoản" style="rounded=0;whiteSpace=wrap;html=1;fontSize=16;fontStyle=1;movable=0;resizable=0;rotatable=0;deletable=0;editable=0;connectable=0;fillColor=#dae8fc;strokeColor=#6c8ebf;" parent="1" vertex="1">
                    <mxGeometry x="960" y="520" width="140" height="40" as="geometry"/>
                </mxCell>
                <mxCell id="10" value="" style="edgeStyle=elbowEdgeStyle;elbow=vertical;endArrow=classic;html=1;curved=0;rounded=0;endSize=8;startSize=8;fontSize=16;exitX=0.5;exitY=1;exitDx=0;exitDy=0;entryX=0.5;entryY=0;entryDx=0;entryDy=0;movable=0;resizable=0;rotatable=0;deletable=0;editable=0;connectable=0;" parent="1" source="2" target="3" edge="1">
                    <mxGeometry width="50" height="50" relative="1" as="geometry">
                        <mxPoint x="680" y="820" as="sourcePoint"/>
                        <mxPoint x="730" y="770" as="targetPoint"/>
                    </mxGeometry>
                </mxCell>
                <mxCell id="11" value="" style="edgeStyle=elbowEdgeStyle;elbow=vertical;endArrow=classic;html=1;curved=0;rounded=0;endSize=8;startSize=8;fontSize=16;exitX=0.5;exitY=1;exitDx=0;exitDy=0;entryX=0.5;entryY=0;entryDx=0;entryDy=0;movable=0;resizable=0;rotatable=0;deletable=0;editable=0;connectable=0;" parent="1" source="2" target="4" edge="1">
                    <mxGeometry width="50" height="50" relative="1" as="geometry">
                        <mxPoint x="680" y="820" as="sourcePoint"/>
                        <mxPoint x="730" y="770" as="targetPoint"/>
                    </mxGeometry>
                </mxCell>
                <mxCell id="12" value="" style="edgeStyle=elbowEdgeStyle;elbow=vertical;endArrow=classic;html=1;curved=0;rounded=0;endSize=8;startSize=8;fontSize=16;exitX=0.5;exitY=1;exitDx=0;exitDy=0;entryX=0.5;entryY=0;entryDx=0;entryDy=0;movable=0;resizable=0;rotatable=0;deletable=0;editable=0;connectable=0;" parent="1" source="2" target="5" edge="1">
                    <mxGeometry width="50" height="50" relative="1" as="geometry">
                        <mxPoint x="690" y="490" as="sourcePoint"/>
                        <mxPoint x="570" y="530" as="targetPoint"/>
                    </mxGeometry>
                </mxCell>
                <mxCell id="13" value="" style="edgeStyle=elbowEdgeStyle;elbow=vertical;endArrow=classic;html=1;curved=0;rounded=0;endSize=8;startSize=8;fontSize=16;exitX=0.5;exitY=1;exitDx=0;exitDy=0;entryX=0.5;entryY=0;entryDx=0;entryDy=0;movable=0;resizable=0;rotatable=0;deletable=0;editable=0;connectable=0;" parent="1" source="2" target="7" edge="1">
                    <mxGeometry width="50" height="50" relative="1" as="geometry">
                        <mxPoint x="690" y="490" as="sourcePoint"/>
                        <mxPoint x="330" y="530" as="targetPoint"/>
                    </mxGeometry>
                </mxCell>
                <mxCell id="14" value="1.1. Nhập tài khoản/mật khẩu, email, số điện thoại,..." style="rounded=0;whiteSpace=wrap;html=1;fontSize=16;align=left;spacingLeft=5;movable=0;resizable=0;rotatable=0;deletable=0;editable=0;connectable=0;" parent="1" vertex="1">
                    <mxGeometry x="260" y="580" width="190" height="60" as="geometry"/>
                </mxCell>
                <mxCell id="15" value="1.2. Xác minh email hoặc số điện thoại" style="rounded=0;whiteSpace=wrap;html=1;fontSize=16;align=left;spacingLeft=5;movable=0;resizable=0;rotatable=0;deletable=0;editable=0;connectable=0;" parent="1" vertex="1">
                    <mxGeometry x="260" y="660" width="190" height="40" as="geometry"/>
                </mxCell>
                <mxCell id="16" value="1.3. Thêm tài khoản mới vào hệ thống" style="rounded=0;whiteSpace=wrap;html=1;fontSize=16;align=left;spacingLeft=5;movable=0;resizable=0;rotatable=0;deletable=0;editable=0;connectable=0;" parent="1" vertex="1">
                    <mxGeometry x="260" y="720" width="190" height="40" as="geometry"/>
                </mxCell>
                <mxCell id="17" value="2.1. Nhập tài khoản/mật khẩu" style="rounded=0;whiteSpace=wrap;html=1;fontSize=16;align=left;spacingLeft=5;movable=0;resizable=0;rotatable=0;deletable=0;editable=0;connectable=0;" parent="1" vertex="1">
                    <mxGeometry x="500" y="580" width="190" height="40" as="geometry"/>
                </mxCell>
                <mxCell id="20" value="" style="edgeStyle=elbowEdgeStyle;elbow=horizontal;endArrow=none;html=1;curved=0;rounded=0;endSize=8;startSize=8;fontSize=16;exitX=0;exitY=0.5;exitDx=0;exitDy=0;entryX=0;entryY=0.5;entryDx=0;entryDy=0;endFill=0;movable=0;resizable=0;rotatable=0;deletable=0;editable=0;connectable=0;" parent="1" source="3" target="14" edge="1">
                    <mxGeometry width="50" height="50" relative="1" as="geometry">
                        <mxPoint x="260" y="540" as="sourcePoint"/>
                        <mxPoint x="730" y="750" as="targetPoint"/>
                        <Array as="points">
                            <mxPoint x="240" y="580"/>
                        </Array>
                    </mxGeometry>
                </mxCell>
                <mxCell id="21" value="" style="edgeStyle=elbowEdgeStyle;elbow=horizontal;endArrow=none;html=1;curved=0;rounded=0;endSize=8;startSize=8;fontSize=16;entryX=0;entryY=0.5;entryDx=0;entryDy=0;endFill=0;exitX=0;exitY=0.5;exitDx=0;exitDy=0;movable=0;resizable=0;rotatable=0;deletable=0;editable=0;connectable=0;" parent="1" source="14" target="15" edge="1">
                    <mxGeometry width="50" height="50" relative="1" as="geometry">
                        <mxPoint x="240" y="610" as="sourcePoint"/>
                        <mxPoint x="260" y="710" as="targetPoint"/>
                        <Array as="points">
                            <mxPoint x="240" y="680"/>
                        </Array>
                    </mxGeometry>
                </mxCell>
                <mxCell id="22" value="" style="edgeStyle=elbowEdgeStyle;elbow=horizontal;endArrow=none;html=1;curved=0;rounded=0;endSize=8;startSize=8;fontSize=16;entryX=0;entryY=0.5;entryDx=0;entryDy=0;endFill=0;exitX=0;exitY=0.5;exitDx=0;exitDy=0;movable=0;resizable=0;rotatable=0;deletable=0;editable=0;connectable=0;" parent="1" source="15" target="16" edge="1">
                    <mxGeometry width="50" height="50" relative="1" as="geometry">
                        <mxPoint x="260" y="700" as="sourcePoint"/>
                        <mxPoint x="260" y="770" as="targetPoint"/>
                        <Array as="points">
                            <mxPoint x="240" y="770"/>
                        </Array>
                    </mxGeometry>
                </mxCell>
                <mxCell id="23" value="2.2. Xác minh tài khoản" style="rounded=0;whiteSpace=wrap;html=1;fontSize=16;align=left;spacingLeft=5;movable=0;resizable=0;rotatable=0;deletable=0;editable=0;connectable=0;" parent="1" vertex="1">
                    <mxGeometry x="500" y="660" width="190" height="40" as="geometry"/>
                </mxCell>
                <mxCell id="24" value="2.3. Từ chối đăng nhập hoặc tra về token" style="rounded=0;whiteSpace=wrap;html=1;fontSize=16;align=left;spacingLeft=5;movable=0;resizable=0;rotatable=0;deletable=0;editable=0;connectable=0;" parent="1" vertex="1">
                    <mxGeometry x="500" y="720" width="190" height="40" as="geometry"/>
                </mxCell>
                <mxCell id="25" value="" style="edgeStyle=elbowEdgeStyle;elbow=horizontal;endArrow=none;html=1;curved=0;rounded=0;endSize=8;startSize=8;fontSize=16;entryX=0;entryY=0.5;entryDx=0;entryDy=0;endFill=0;exitX=0;exitY=0.5;exitDx=0;exitDy=0;movable=0;resizable=0;rotatable=0;deletable=0;editable=0;connectable=0;" parent="1" source="17" target="23" edge="1">
                    <mxGeometry width="50" height="50" relative="1" as="geometry">
                        <mxPoint x="500" y="610" as="sourcePoint"/>
                        <mxPoint x="500" y="680" as="targetPoint"/>
                        <Array as="points">
                            <mxPoint x="480" y="680"/>
                        </Array>
                    </mxGeometry>
                </mxCell>
                <mxCell id="26" value="" style="edgeStyle=elbowEdgeStyle;elbow=horizontal;endArrow=none;html=1;curved=0;rounded=0;endSize=8;startSize=8;fontSize=16;entryX=0;entryY=0.5;entryDx=0;entryDy=0;endFill=0;movable=0;resizable=0;rotatable=0;deletable=0;editable=0;connectable=0;exitX=0;exitY=0.5;exitDx=0;exitDy=0;" parent="1" source="4" target="17" edge="1">
                    <mxGeometry width="50" height="50" relative="1" as="geometry">
                        <mxPoint x="480" y="550" as="sourcePoint"/>
                        <mxPoint x="500" y="660" as="targetPoint"/>
                        <Array as="points">
                            <mxPoint x="480" y="600"/>
                        </Array>
                    </mxGeometry>
                </mxCell>
                <mxCell id="27" value="" style="edgeStyle=elbowEdgeStyle;elbow=horizontal;endArrow=none;html=1;curved=0;rounded=0;endSize=8;startSize=8;fontSize=16;entryX=0;entryY=0.5;entryDx=0;entryDy=0;endFill=0;exitX=0;exitY=0.5;exitDx=0;exitDy=0;movable=0;resizable=0;rotatable=0;deletable=0;editable=0;connectable=0;" parent="1" source="23" target="24" edge="1">
                    <mxGeometry width="50" height="50" relative="1" as="geometry">
                        <mxPoint x="500" y="630" as="sourcePoint"/>
                        <mxPoint x="500" y="710" as="targetPoint"/>
                        <Array as="points">
                            <mxPoint x="480" y="710"/>
                        </Array>
                    </mxGeometry>
                </mxCell>
                <mxCell id="28" value="3.1. Điền thông tin mới" style="rounded=0;whiteSpace=wrap;html=1;fontSize=16;align=left;spacingLeft=5;movable=0;resizable=0;rotatable=0;deletable=0;editable=0;connectable=0;" parent="1" vertex="1">
                    <mxGeometry x="740" y="580" width="190" height="40" as="geometry"/>
                </mxCell>
                <mxCell id="29" value="3.2. Xác minh email/ số điện thoại (nếu có sự thay đổi" style="rounded=0;whiteSpace=wrap;html=1;fontSize=16;align=left;spacingLeft=5;movable=0;resizable=0;rotatable=0;deletable=0;editable=0;connectable=0;" parent="1" vertex="1">
                    <mxGeometry x="740" y="640" width="190" height="60" as="geometry"/>
                </mxCell>
                <mxCell id="30" value="3.3. Thay đổi thông tin của tài khoản" style="rounded=0;whiteSpace=wrap;html=1;fontSize=16;align=left;spacingLeft=5;movable=0;resizable=0;rotatable=0;deletable=0;editable=0;connectable=0;" parent="1" vertex="1">
                    <mxGeometry x="740" y="720" width="190" height="40" as="geometry"/>
                </mxCell>
                <mxCell id="31" value="" style="edgeStyle=elbowEdgeStyle;elbow=horizontal;endArrow=none;html=1;curved=0;rounded=0;endSize=8;startSize=8;fontSize=16;entryX=0;entryY=0.5;entryDx=0;entryDy=0;endFill=0;movable=0;resizable=0;rotatable=0;deletable=0;editable=0;connectable=0;exitX=0;exitY=0.5;exitDx=0;exitDy=0;" parent="1" edge="1">
                    <mxGeometry width="50" height="50" relative="1" as="geometry">
                        <mxPoint x="720" y="540" as="sourcePoint"/>
                        <mxPoint x="740" y="600" as="targetPoint"/>
                        <Array as="points">
                            <mxPoint x="720" y="600"/>
                        </Array>
                    </mxGeometry>
                </mxCell>
                <mxCell id="32" value="" style="edgeStyle=elbowEdgeStyle;elbow=horizontal;endArrow=none;html=1;curved=0;rounded=0;endSize=8;startSize=8;fontSize=16;entryX=0;entryY=0.5;entryDx=0;entryDy=0;endFill=0;exitX=0;exitY=0.5;exitDx=0;exitDy=0;movable=0;resizable=0;rotatable=0;deletable=0;editable=0;connectable=0;" parent="1" edge="1">
                    <mxGeometry width="50" height="50" relative="1" as="geometry">
                        <mxPoint x="740" y="600" as="sourcePoint"/>
                        <mxPoint x="740" y="680" as="targetPoint"/>
                        <Array as="points">
                            <mxPoint x="720" y="680"/>
                        </Array>
                    </mxGeometry>
                </mxCell>
                <mxCell id="33" value="" style="edgeStyle=elbowEdgeStyle;elbow=horizontal;endArrow=none;html=1;curved=0;rounded=0;endSize=8;startSize=8;fontSize=16;entryX=0;entryY=0.5;entryDx=0;entryDy=0;endFill=0;exitX=0;exitY=0.5;exitDx=0;exitDy=0;movable=0;resizable=0;rotatable=0;deletable=0;editable=0;connectable=0;" parent="1" edge="1">
                    <mxGeometry width="50" height="50" relative="1" as="geometry">
                        <mxPoint x="740" y="680" as="sourcePoint"/>
                        <mxPoint x="740" y="740" as="targetPoint"/>
                        <Array as="points">
                            <mxPoint x="720" y="710"/>
                        </Array>
                    </mxGeometry>
                </mxCell>
                <mxCell id="34" value="4.1. Yêu cầu nhập lại tài khoản/ mật khẩu" style="rounded=0;whiteSpace=wrap;html=1;fontSize=16;align=left;spacingLeft=5;movable=0;resizable=0;rotatable=0;deletable=0;editable=0;connectable=0;" parent="1" vertex="1">
                    <mxGeometry x="980" y="580" width="190" height="40" as="geometry"/>
                </mxCell>
                <mxCell id="35" value="4.2. Xác minh tài khoản" style="rounded=0;whiteSpace=wrap;html=1;fontSize=16;align=left;spacingLeft=5;movable=0;resizable=0;rotatable=0;deletable=0;editable=0;connectable=0;" parent="1" vertex="1">
                    <mxGeometry x="980" y="660" width="190" height="40" as="geometry"/>
                </mxCell>
                <mxCell id="36" value="4.3. Hỏi lý do, đánh giá" style="rounded=0;whiteSpace=wrap;html=1;fontSize=16;align=left;spacingLeft=5;movable=0;resizable=0;rotatable=0;deletable=0;editable=0;connectable=0;" parent="1" vertex="1">
                    <mxGeometry x="980" y="720" width="190" height="40" as="geometry"/>
                </mxCell>
                <mxCell id="37" value="4.4. Xóa tài khoản" style="rounded=0;whiteSpace=wrap;html=1;fontSize=16;align=left;spacingLeft=5;movable=0;resizable=0;rotatable=0;deletable=0;editable=0;connectable=0;" parent="1" vertex="1">
                    <mxGeometry x="980" y="780" width="190" height="40" as="geometry"/>
                </mxCell>
                <mxCell id="38" value="" style="edgeStyle=elbowEdgeStyle;elbow=horizontal;endArrow=none;html=1;curved=0;rounded=0;endSize=8;startSize=8;fontSize=16;entryX=0;entryY=0.5;entryDx=0;entryDy=0;endFill=0;movable=0;resizable=0;rotatable=0;deletable=0;editable=0;connectable=0;exitX=0;exitY=0.5;exitDx=0;exitDy=0;" parent="1" edge="1">
                    <mxGeometry width="50" height="50" relative="1" as="geometry">
                        <mxPoint x="960" y="540" as="sourcePoint"/>
                        <mxPoint x="980" y="600" as="targetPoint"/>
                        <Array as="points">
                            <mxPoint x="960" y="600"/>
                        </Array>
                    </mxGeometry>
                </mxCell>
                <mxCell id="39" value="" style="edgeStyle=elbowEdgeStyle;elbow=horizontal;endArrow=none;html=1;curved=0;rounded=0;endSize=8;startSize=8;fontSize=16;entryX=0;entryY=0.5;entryDx=0;entryDy=0;endFill=0;exitX=0;exitY=0.5;exitDx=0;exitDy=0;movable=0;resizable=0;rotatable=0;deletable=0;editable=0;connectable=0;" parent="1" edge="1">
                    <mxGeometry width="50" height="50" relative="1" as="geometry">
                        <mxPoint x="980" y="600" as="sourcePoint"/>
                        <mxPoint x="980" y="680" as="targetPoint"/>
                        <Array as="points">
                            <mxPoint x="960" y="680"/>
                        </Array>
                    </mxGeometry>
                </mxCell>
                <mxCell id="40" value="" style="edgeStyle=elbowEdgeStyle;elbow=horizontal;endArrow=none;html=1;curved=0;rounded=0;endSize=8;startSize=8;fontSize=16;entryX=0;entryY=0.5;entryDx=0;entryDy=0;endFill=0;exitX=0;exitY=0.5;exitDx=0;exitDy=0;movable=0;resizable=0;rotatable=0;deletable=0;editable=0;connectable=0;" parent="1" edge="1">
                    <mxGeometry width="50" height="50" relative="1" as="geometry">
                        <mxPoint x="980" y="680" as="sourcePoint"/>
                        <mxPoint x="980" y="740" as="targetPoint"/>
                        <Array as="points">
                            <mxPoint x="960" y="710"/>
                        </Array>
                    </mxGeometry>
                </mxCell>
                <mxCell id="41" value="" style="edgeStyle=elbowEdgeStyle;elbow=horizontal;endArrow=none;html=1;curved=0;rounded=0;endSize=8;startSize=8;fontSize=16;entryX=0;entryY=0.5;entryDx=0;entryDy=0;endFill=0;exitX=0;exitY=0.5;exitDx=0;exitDy=0;movable=0;resizable=0;rotatable=0;deletable=0;editable=0;connectable=0;" parent="1" edge="1">
                    <mxGeometry width="50" height="50" relative="1" as="geometry">
                        <mxPoint x="980" y="740" as="sourcePoint"/>
                        <mxPoint x="980" y="800" as="targetPoint"/>
                        <Array as="points">
                            <mxPoint x="960" y="770"/>
                        </Array>
                    </mxGeometry>
                </mxCell>
            </root>
        </mxGraphModel>
    </diagram>
</mxfile>